# xmcd
#
# Track frame offsets: 
#        150
#        21291
#        40591
#        61656
#        78212
#        95938
#        113221
#        128795
#        148184
#        170958
#        194896
#        211655
#        233048
#        255834
#        270290
#        287293
#        299497
#
# Disc length: 4269 seconds
#
# Revision: 2
# Processed by: cddbd v1.5.2PL0 Copyright (c) Steve Scherf et al.
# Submitted via: ExactAudioCopy v1.3
#
DISCID=f410ab11
DTITLE=Various Artist - Blues Revue sampler, Dec-Jan 2009
DYEAR=2010
DGENRE=Blues
TTITLE0=Paul Rishell and Annie Raines - Moving to the country
TTITLE1=Back Door Slam - Come home
TTITLE2=Bradley-McGillivray Blues Band - Not the body
TTITLE3=Mark Nomad - Got to carry on
TTITLE4=Kolvane - Cool baby
TTITLE5=Slawek Wierzcholski and Nocha Zmiana Bluesa - Great girls
TTITLE6=John Dee Holeman - One black rat
TTITLE7=Cadillac Pete and The Heat - Touch tone touch
TTITLE8=Roger Hurrican Wilson - You do your job
TTITLE9=Mark Cook Project - No one likes a good woman (When she's down
TTITLE9=)
TTITLE10=Smoky Greenwell and The Blues Gnus - Between Iraq and a hard pl
TTITLE10=ace
TTITLE11=Trampled Under Foot - Love my baby
TTITLE12=Theodis Ealey - Stand up in it (clean)
TTITLE13=Loco Zydeco - Hair of the dog
TTITLE14=Marla BB - I want
TTITLE15=Lazy J and The Dirty Shuffle - Mr. Cee's boogie
TTITLE16=Gaye Abegbalola - Deja vu blues
EXTD=
EXTT0=
EXTT1=
EXTT2=
EXTT3=
EXTT4=
EXTT5=
EXTT6=
EXTT7=
EXTT8=
EXTT9=
EXTT10=
EXTT11=
EXTT12=
EXTT13=
EXTT14=
EXTT15=
EXTT16=
PLAYORDER=
